<svg width="none" height="none" viewBox="0 0 20 24" fill="none" xmlns="http://www.w3.org/2000/svg">
<g filter="url(#filter0_d_474_3545)">
<path d="M11.6667 1.33334H6.00008C5.64646 1.33334 5.30732 1.47381 5.05727 1.72386C4.80722 1.97391 4.66675 2.31305 4.66675 2.66667V13.3333C4.66675 13.687 4.80722 14.0261 5.05727 14.2761C5.30732 14.5262 5.64646 14.6667 6.00008 14.6667H14.0001C14.3537 14.6667 14.6928 14.5262 14.9429 14.2761C15.1929 14.0261 15.3334 13.687 15.3334 13.3333V5L11.6667 1.33334Z" stroke="#757D8A" stroke-linecap="round" stroke-linejoin="round"/>
<path d="M11.3333 1.33334V5.33334H15.3333" stroke="#757D8A" stroke-linecap="round" stroke-linejoin="round"/>
<path d="M12.6666 8.66666H7.33325" stroke="#757D8A" stroke-linecap="round" stroke-linejoin="round"/>
<path d="M12.6666 11.3333H7.33325" stroke="#757D8A" stroke-linecap="round" stroke-linejoin="round"/>
<path d="M8.66658 6H7.33325" stroke="#757D8A" stroke-linecap="round" stroke-linejoin="round"/>
</g>
<defs>
<filter id="filter0_d_474_3545" x="-2" y="0" width="24" height="24" filterUnits="userSpaceOnUse" color-interpolation-filters="sRGB">
<feFlood flood-opacity="0" result="BackgroundImageFix"/>
<feColorMatrix in="SourceAlpha" type="matrix" values="0 0 0 0 0 0 0 0 0 0 0 0 0 0 0 0 0 0 127 0" result="hardAlpha"/>
<feOffset dy="4"/>
<feGaussianBlur stdDeviation="2"/>
<feComposite in2="hardAlpha" operator="out"/>
<feColorMatrix type="matrix" values="0 0 0 0 0 0 0 0 0 0 0 0 0 0 0 0 0 0 0.25 0"/>
<feBlend mode="normal" in2="BackgroundImageFix" result="effect1_dropShadow_474_3545"/>
<feBlend mode="normal" in="SourceGraphic" in2="effect1_dropShadow_474_3545" result="shape"/>
</filter>
</defs>
</svg>
