<svg width="none" height="none" viewBox="0 0 17 16" fill="none" xmlns="http://www.w3.org/2000/svg">
<path d="M10.8732 6.775L7.7554 4.663C7.57234 4.53901 7.36479 4.47384 7.15356 4.47402C6.94234 4.47421 6.73487 4.53974 6.55196 4.66404C6.36906 4.78835 6.21716 4.96705 6.11151 5.18223C6.00585 5.39741 5.95015 5.6415 5.95 5.89V10.112C5.94745 10.618 6.17695 11.086 6.5501 11.336C6.73305 11.4617 6.94107 11.5282 7.15295 11.5285C7.36483 11.5289 7.573 11.4631 7.75625 11.338L10.8732 9.226C11.0563 9.10216 11.2084 8.9237 11.3142 8.70863C11.42 8.49356 11.4757 8.24948 11.4757 8.001C11.4757 7.75252 11.42 7.50844 11.3142 7.29337C11.2084 7.0783 11.0563 6.89984 10.8732 6.776M10.4482 8.358L7.3321 10.471C7.2781 10.5083 7.21663 10.5279 7.15403 10.5279C7.09142 10.5279 7.02995 10.5083 6.97595 10.471C6.92179 10.4349 6.87687 10.3824 6.84591 10.3189C6.81496 10.2554 6.7991 10.1832 6.8 10.11V5.89C6.7994 5.81713 6.81541 5.7454 6.84635 5.68226C6.87729 5.61913 6.92204 5.5669 6.97595 5.531C7.02948 5.49267 7.09094 5.4724 7.1536 5.4724C7.21626 5.4724 7.27772 5.49267 7.33125 5.531L10.4482 7.644C10.502 7.67972 10.5467 7.73159 10.5778 7.79432C10.6089 7.85704 10.6253 7.92837 10.6253 8.001C10.6253 8.07363 10.6089 8.14496 10.5778 8.20768C10.5467 8.27041 10.502 8.32228 10.4482 8.358ZM14.45 0H2.55C1.87391 0.000794215 1.22569 0.31712 0.747623 0.879557C0.269552 1.44199 0.000675083 2.20459 0 3V13C0.000675083 13.7954 0.269552 14.558 0.747623 15.1204C1.22569 15.6829 1.87391 15.9992 2.55 16H14.45C15.1261 15.9992 15.7743 15.6829 16.2524 15.1204C16.7304 14.558 16.9993 13.7954 17 13V3C16.9993 2.20459 16.7304 1.44199 16.2524 0.879557C15.7743 0.31712 15.1261 0.000794215 14.45 0ZM16.15 13C16.1493 13.5302 15.97 14.0384 15.6513 14.4133C15.3327 14.7882 14.9007 14.9992 14.45 15H2.55C2.09934 14.9992 1.66733 14.7882 1.34866 14.4133C1.03 14.0384 0.850674 13.5302 0.85 13V3C0.850674 2.46981 1.03 1.96156 1.34866 1.58666C1.66733 1.21176 2.09934 1.00079 2.55 1H14.45C14.9007 1.00079 15.3327 1.21176 15.6513 1.58666C15.97 1.96156 16.1493 2.46981 16.15 3V13Z" fill="#757D8A"/>
</svg>
